<svg width="0" height="0" class="hidden">
  <symbol fill="none" xmlns="http://www.w3.org/2000/svg" viewBox="0 0 32 32" id="tv">
    <path d="M0 8s0-4 4-4h24s4 0 4 4v12s0 4-4 4h-8c0 1.333.167 2.333.5 3H22a1 1 0 0 1 0 2H10a1 1 0 0 1 0-2h1.5c.333-.667.5-1.667.5-3H4s-4 0-4-4V8Zm2.796-1.71a1.52 1.52 0 0 0-.508.604A3 3 0 0 0 2 8.02V20c0 .65.156 1.004.29 1.204.14.208.341.377.604.508.338.162.703.259 1.076.286l.05.002H28c.65 0 1.004-.156 1.204-.29a1.52 1.52 0 0 0 .508-.604c.162-.338.259-.703.286-1.076l.002-.05V8c0-.65-.156-1.004-.29-1.204a1.52 1.52 0 0 0-.604-.508A3 3 0 0 0 27.98 6H4c-.65 0-1.004.156-1.204.29Z" fill="#101828"></path>
  </symbol>
  <symbol fill="none" xmlns="http://www.w3.org/2000/svg" viewBox="0 0 32 32" id="ac">
    <g clip-path="url(#a)">
      <path d="M25 4a5 5 0 0 0-5 5 1 1 0 0 1-2 0 7 7 0 1 1 7 7H1a1 1 0 0 1 0-2h24a5 5 0 1 0 0-10ZM11 6a2 2 0 0 0-2 2 1 1 0 0 1-2 0 4 4 0 1 1 4 4H1a1 1 0 0 1 0-2h10a2 2 0 0 0 0-4ZM0 19a1 1 0 0 1 1-1h20.084a6 6 0 1 1-6 6 1 1 0 0 1 2 0 4 4 0 1 0 4-4H1a1 1 0 0 1-1-1Z" fill="#101828"></path>
    </g>
    <defs>
      <clipPath id="a">
        <path fill="#fff" d="M0 0h32v32H0z"></path>
      </clipPath>
    </defs>
  </symbol>
  <symbol fill="none" xmlns="http://www.w3.org/2000/svg" viewBox="0 0 32 32" id="transmission">
    <path fill-rule="evenodd" clip-rule="evenodd" d="M12 7a3 3 0 0 1 3-3h2a3 3 0 0 1 3 3v2a3 3 0 0 1-3 3v2h11a1 1 0 0 1 1 1v2a1 1 0 0 1-2 0v-1H17v1a1 1 0 0 1-2 0v-1H5v1a1 1 0 1 1-2 0v-2a1 1 0 0 1 1-1h11v-2a3 3 0 0 1-3-3V7Zm5 3a1 1 0 0 0 1-1V7a1 1 0 0 0-1-1h-2a1 1 0 0 0-1 1v2a1 1 0 0 0 1 1h2ZM0 23a3 3 0 0 1 3-3h2a3 3 0 0 1 3 3v2a3 3 0 0 1-3 3H3a3 3 0 0 1-3-3v-2Zm3-1a1 1 0 0 0-1 1v2a1 1 0 0 0 1 1h2a1 1 0 0 0 1-1v-2a1 1 0 0 0-1-1H3Zm9 1a3 3 0 0 1 3-3h2a3 3 0 0 1 3 3v2a3 3 0 0 1-3 3h-2a3 3 0 0 1-3-3v-2Zm3-1a1 1 0 0 0-1 1v2a1 1 0 0 0 1 1h2a1 1 0 0 0 1-1v-2a1 1 0 0 0-1-1h-2Zm9 1a3 3 0 0 1 3-3h2a3 3 0 0 1 3 3v2a3 3 0 0 1-3 3h-2a3 3 0 0 1-3-3v-2Zm3-1a1 1 0 0 0-1 1v2a1 1 0 0 0 1 1h2a1 1 0 0 0 1-1v-2a1 1 0 0 0-1-1h-2Z" fill="#101828"></path>
  </symbol>
  <symbol fill="none" xmlns="http://www.w3.org/2000/svg" viewBox="0 0 32 32" id="cup">
    <g clip-path="url(#a)" fill="#101828">
      <path fill-rule="evenodd" clip-rule="evenodd" d="M1 12a1.001 1.001 0 0 0-.976 1.216l3.304 14.868A5 5 0 0 0 8.208 32h11.584a5 5 0 0 0 4.88-3.916l.262-1.18a6 6 0 0 0 2.6-11.708l.442-1.98A1 1 0 0 0 27 12H1Zm25 13c-.212 0-.423-.017-.632-.05l1.734-7.796A4.002 4.002 0 0 1 26 25ZM5.28 27.65 2.246 14h23.508L22.72 27.65A3 3 0 0 1 19.792 30H8.208a3 3 0 0 1-2.928-2.35Z"></path>
      <path d="m8.8 1.6-.006.008-.028.038c-.146.2-.282.407-.408.62a4 4 0 0 0-.282.534c-.052.12-.068.184-.074.206v.008a1.2 1.2 0 0 0 .182.496c.15.266.356.544.616.89l.02.024c.236.316.52.694.74 1.086.224.4.44.91.44 1.49 0 .376-.13.736-.238.988a6 6 0 0 1-.404.776 10 10 0 0 1-.506.764l-.036.05-.01.016-.004.004A1 1 0 0 1 7.2 8.4l.006-.008.028-.038c.146-.2.282-.407.408-.62a4 4 0 0 0 .282-.534c.052-.12.068-.184.074-.206a1.2 1.2 0 0 0-.18-.504A8 8 0 0 0 7.2 5.6l-.02-.024a10 10 0 0 1-.74-1.086A3.06 3.06 0 0 1 6 3c0-.376.13-.736.238-.988.118-.276.268-.548.404-.776.159-.261.328-.516.506-.764l.05-.07A1 1 0 1 1 8.8 1.6Zm6 0-.006.008-.028.038c-.146.2-.282.407-.408.62-.107.17-.202.35-.282.534-.052.12-.068.184-.074.206v.008a1.2 1.2 0 0 0 .182.496c.15.266.356.544.616.89l.02.024c.236.316.52.694.74 1.086.224.4.44.91.44 1.49 0 .376-.13.736-.238.988-.116.268-.25.528-.404.776a9.986 9.986 0 0 1-.506.764l-.036.05-.01.016-.004.004A1 1 0 0 1 13.2 8.4l.006-.008.028-.038c.146-.2.282-.407.408-.62.107-.17.202-.35.282-.534.052-.12.068-.184.074-.206a1.2 1.2 0 0 0-.18-.504 8.004 8.004 0 0 0-.618-.89l-.02-.024c-.27-.345-.517-.708-.74-1.086A3.06 3.06 0 0 1 12 3c0-.376.13-.736.238-.988.118-.276.268-.548.404-.776.159-.261.328-.516.506-.764l.05-.07A1 1 0 0 1 14.8 1.6Zm6 0-.006.008-.028.038c-.145.2-.282.407-.408.62-.107.17-.202.35-.282.534-.052.12-.068.184-.074.206v.008a1.2 1.2 0 0 0 .182.496c.15.266.356.544.616.89l.02.024c.236.316.52.694.74 1.086.224.4.44.91.44 1.49 0 .376-.13.736-.238.988-.116.268-.25.528-.404.776-.156.262-.324.517-.504.764l-.038.05-.01.016-.004.004A1 1 0 0 1 19.2 8.4l.006-.008.028-.038c.145-.2.282-.407.408-.62.107-.17.202-.35.282-.534.052-.12.068-.184.074-.206a1.2 1.2 0 0 0-.18-.504 7.99 7.99 0 0 0-.618-.89l-.02-.024c-.27-.345-.517-.708-.74-1.086A3.06 3.06 0 0 1 18 3c0-.376.13-.736.238-.988.118-.276.268-.548.404-.776.159-.261.328-.516.506-.764l.05-.07A1 1 0 0 1 20.8 1.6Z"></path>
    </g>
    <defs>
      <clipPath id="a">
        <path fill="#fff" d="M0 0h32v32H0z"></path>
      </clipPath>
    </defs>
  </symbol>
  <symbol fill="none" xmlns="http://www.w3.org/2000/svg" viewBox="0 0 32 32" id="water">
    <path fill-rule="evenodd" clip-rule="evenodd" d="M14.42 1.6C15.38.59 16 0 16 0c.219.725.466 1.417.742 2.076 1.624 3.892 4.146 6.7 6.394 9.2C25.756 14.192 28 16.69 28 20a12 12 0 0 1-24 0c0-6.664 7.16-14.966 10.42-18.4Zm.826 2.042a62.002 62.002 0 0 0-3.658 4.338c-1.452 1.9-2.872 4.016-3.92 6.14C6.608 16.266 6 18.276 6 20a10 10 0 0 0 20 0c0-2.402-1.592-4.314-4.362-7.4l-.06-.064C19.5 10.22 17 7.442 15.246 3.642Z" fill="#101828"></path>
    <path fill-rule="evenodd" clip-rule="evenodd" d="M9.106 15.552c1.64-3.282 3.434-5.506 4.186-6.26l1.416 1.416c-.58.58-2.256 2.622-3.814 5.74l-1.788-.896Z" fill="#101828"></path>
  </symbol>
  <symbol fill="none" xmlns="http://www.w3.org/2000/svg" viewBox="0 0 32 32" id="form-van">
    <g clip-path="url(#a)">
      <path d="M12 2H2v28h10V2Zm18 0H20v10h10V2Zm0 18v10H20V20h10ZM0 2a2 2 0 0 1 2-2h10a2 2 0 0 1 2 2v28a2 2 0 0 1-2 2H2a2 2 0 0 1-2-2V2Zm18 0a2 2 0 0 1 2-2h10a2 2 0 0 1 2 2v10a2 2 0 0 1-2 2H20a2 2 0 0 1-2-2V2Zm2 16a2 2 0 0 0-2 2v10a2 2 0 0 0 2 2h10a2 2 0 0 0 2-2V20a2 2 0 0 0-2-2H20Z" fill="#101828"></path>
    </g>
    <defs>
      <clipPath id="a">
        <path fill="#fff" d="M0 0h32v32H0z"></path>
      </clipPath>
    </defs>
  </symbol>
  <symbol fill="none" xmlns="http://www.w3.org/2000/svg" viewBox="0 0 32 32" id="form-integrated">
    <path d="M2 5a3 3 0 0 1 3-3h6a3 3 0 0 1 3 3v6a3 3 0 0 1-3 3H5a3 3 0 0 1-3-3V5Zm3-1a1 1 0 0 0-1 1v6a1 1 0 0 0 1 1h6a1 1 0 0 0 1-1V5a1 1 0 0 0-1-1H5Zm13 1a3 3 0 0 1 3-3h6a3 3 0 0 1 3 3v6a3 3 0 0 1-3 3h-6a3 3 0 0 1-3-3V5Zm3-1a1 1 0 0 0-1 1v6a1 1 0 0 0 1 1h6a1 1 0 0 0 1-1V5a1 1 0 0 0-1-1h-6ZM2 21a3 3 0 0 1 3-3h6a3 3 0 0 1 3 3v6a3 3 0 0 1-3 3H5a3 3 0 0 1-3-3v-6Zm3-1a1 1 0 0 0-1 1v6a1 1 0 0 0 1 1h6a1 1 0 0 0 1-1v-6a1 1 0 0 0-1-1H5Zm13 1a3 3 0 0 1 3-3h6a3 3 0 0 1 3 3v6a3 3 0 0 1-3 3h-6a3 3 0 0 1-3-3v-6Zm3-1a1 1 0 0 0-1 1v6a1 1 0 0 0 1 1h6a1 1 0 0 0 1-1v-6a1 1 0 0 0-1-1h-6Z" fill="#101828"></path>
  </symbol>
  <symbol fill="none" xmlns="http://www.w3.org/2000/svg" viewBox="0 0 32 32" id="form-alcove">
    <path d="M8 4v4H4V4h4Zm2 24v-4a2 2 0 0 0-2-2H4a2 2 0 0 0-2 2v4a2 2 0 0 0 2 2h4a2 2 0 0 0 2-2Zm0-10v-4a2 2 0 0 0-2-2H4a2 2 0 0 0-2 2v4a2 2 0 0 0 2 2h4a2 2 0 0 0 2-2Zm0-10V4a2 2 0 0 0-2-2H4a2 2 0 0 0-2 2v4a2 2 0 0 0 2 2h4a2 2 0 0 0 2-2Zm10 20v-4a2 2 0 0 0-2-2h-4a2 2 0 0 0-2 2v4a2 2 0 0 0 2 2h4a2 2 0 0 0 2-2Zm0-10v-4a2 2 0 0 0-2-2h-4a2 2 0 0 0-2 2v4a2 2 0 0 0 2 2h4a2 2 0 0 0 2-2Zm0-10V4a2 2 0 0 0-2-2h-4a2 2 0 0 0-2 2v4a2 2 0 0 0 2 2h4a2 2 0 0 0 2-2Zm-2-4v4h-4V4h4Zm10 0v4h-4V4h4ZM8 14v4H4v-4h4Zm10 0v4h-4v-4h4Zm10 0h-4v4h4v-4ZM8 24v4H4v-4h4Zm10 0v4h-4v-4h4Zm10 0v4h-4v-4h4ZM24 2a2 2 0 0 0-2 2v4a2 2 0 0 0 2 2h4a2 2 0 0 0 2-2V4a2 2 0 0 0-2-2h-4Zm-2 12a2 2 0 0 1 2-2h4a2 2 0 0 1 2 2v4a2 2 0 0 1-2 2h-4a2 2 0 0 1-2-2v-4Zm2 8a2 2 0 0 0-2 2v4a2 2 0 0 0 2 2h4a2 2 0 0 0 2-2v-4a2 2 0 0 0-2-2h-4Z" fill="#101828"></path>
  </symbol>
  <symbol fill="none" xmlns="http://www.w3.org/2000/svg" viewBox="0 0 24 24" id="heart">
    <path d="m12 9.854-1.341-2.683c-.333-.665-.91-1.62-1.728-2.393C8.127 4.018 7.164 3.5 6 3.5c-2.514 0-4.5 1.989-4.5 4.38 0 1.817.831 3.099 2.802 5.055a86.725 86.725 0 0 0 1.719 1.64c1.662 1.56 3.729 3.5 5.979 6.096 2.25-2.595 4.317-4.537 5.979-6.096a86.92 86.92 0 0 0 1.719-1.64C21.669 10.979 22.5 9.696 22.5 7.88c0-2.391-1.986-4.38-4.5-4.38-1.166 0-2.127.518-2.931 1.278-.818.773-1.395 1.728-1.728 2.393L12 9.854Zm.588 12.438a.77.77 0 0 1-1.176 0c-2.402-2.853-4.575-4.893-6.365-6.572C1.95 12.813 0 10.983 0 7.88 0 4.633 2.685 2 6 2c2.4 0 4.079 1.575 5.106 3.012.39.548.687 1.074.894 1.488.26-.518.559-1.015.894-1.488C13.921 3.574 15.6 2 18 2c3.315 0 6 2.633 6 5.88 0 3.103-1.95 4.932-5.047 7.84-1.79 1.68-3.963 3.722-6.365 6.572Z" fill="#101828"></path>
  </symbol>
  <symbol fill="none" xmlns="http://www.w3.org/2000/svg" viewBox="0 0 16 16" id="star">
    <g clip-path="url(#a)">
      <path d="M7.558.838a.5.5 0 0 1 .884 0l1.889 3.579a.5.5 0 0 0 .356.26l3.988.69a.5.5 0 0 1 .273.84l-2.82 2.902a.5.5 0 0 0-.137.42l.576 4.005a.5.5 0 0 1-.715.52L8.22 12.268a.5.5 0 0 0-.442 0l-3.63 1.786a.5.5 0 0 1-.716-.52l.576-4.005a.5.5 0 0 0-.137-.42l-2.82-2.902a.5.5 0 0 1 .273-.84l3.988-.69a.5.5 0 0 0 .357-.26L7.558.838Z" fill="#F2F4F7"></path>
    </g>
    <defs>
      <clipPath id="a">
        <path fill="#fff" d="M0 0h16v16H0z"></path>
      </clipPath>
    </defs>
  </symbol>
  <symbol fill="none" xmlns="http://www.w3.org/2000/svg" viewBox="0 0 20 20" id="petrol">
    <g clip-path="url(#a)" fill="#101828">
      <path d="M3.75 3.125a.625.625 0 0 1 .625-.625h6.25a.625.625 0 0 1 .625.625v6.25a.625.625 0 0 1-.625.625h-6.25a.625.625 0 0 1-.625-.625v-6.25Z"></path>
      <path d="M1.25 2.5A2.5 2.5 0 0 1 3.75 0h7.5a2.5 2.5 0 0 1 2.5 2.5v10a2.5 2.5 0 0 1 2.5 2.5v.625a.624.624 0 1 0 1.25 0V10h-.625a.625.625 0 0 1-.625-.625V5.469a.625.625 0 0 1 .625-.625h1.869c-.014-.595-.067-1.118-.252-1.528A1.212 1.212 0 0 0 18 2.744c-.23-.138-.58-.244-1.125-.244a.625.625 0 1 1 0-1.25c.705-.002 1.293.138 1.765.42.479.285.793.689.992 1.134.37.819.368 1.831.368 2.601v3.969a.625.625 0 0 1-.625.626h-.625v5.625a1.875 1.875 0 1 1-3.75 0V15a1.25 1.25 0 0 0-1.25-1.25v5h.625a.624.624 0 1 1 0 1.25H.625a.625.625 0 1 1 0-1.25h.625V2.5Zm11.25 0a1.25 1.25 0 0 0-1.25-1.25h-7.5A1.25 1.25 0 0 0 2.5 2.5v16.25h10V2.5Z"></path>
    </g>
    <defs>
      <clipPath id="a">
        <path fill="#fff" d="M0 0h20v20H0z"></path>
      </clipPath>
    </defs>
  </symbol>
  <symbol fill="none" xmlns="http://www.w3.org/2000/svg" viewBox="0 0 20 20" id="radio">
    <g clip-path="url(#a)">
      <path d="M8.75 3.125a.625.625 0 0 1 .625-.625h8.75a.625.625 0 0 1 .625.625v1.25a.625.625 0 0 1-.625.625h-8.75a.625.625 0 0 1-.625-.625v-1.25ZM0 15a3.75 3.75 0 1 1 7.5 0A3.75 3.75 0 0 1 0 15Zm8.75-1.875a.625.625 0 0 1 .625-.625h8.75a.624.624 0 0 1 .625.625v1.25a.624.624 0 0 1-.625.625h-8.75a.625.625 0 0 1-.625-.625v-1.25Zm0-6.25a.625.625 0 0 1 .625-.625h6.25a.625.625 0 1 1 0 1.25h-6.25a.625.625 0 0 1-.625-.625Zm0 10a.625.625 0 0 1 .625-.625h6.25a.624.624 0 1 1 0 1.25h-6.25a.625.625 0 0 1-.625-.625Zm-5-15.625a3.75 3.75 0 1 0 0 7.5 3.75 3.75 0 0 0 0-7.5Zm0 5.625a1.875 1.875 0 1 1 0-3.75 1.875 1.875 0 0 1 0 3.75Z" fill="#101828"></path>
    </g>
    <defs>
      <clipPath id="a">
        <path fill="#fff" d="M0 0h20v20H0z"></path>
      </clipPath>
    </defs>
  </symbol>
  <symbol fill="none" xmlns="http://www.w3.org/2000/svg" viewBox="0 0 20 20" id="adults">
    <path d="M18.75 17.5s1.25 0 1.25-1.25-1.25-5-6.25-5-6.25 3.75-6.25 5 1.25 1.25 1.25 1.25h10Zm-9.973-1.25-.027-.005c.001-.33.209-1.288.95-2.15.69-.809 1.902-1.595 4.05-1.595 2.146 0 3.359.787 4.05 1.595.741.862.947 1.821.95 2.15l-.01.002-.017.003H8.777Zm4.973-7.5a2.5 2.5 0 1 0 0-5 2.5 2.5 0 0 0 0 5Zm3.75-2.5a3.75 3.75 0 1 1-7.498 0 3.75 3.75 0 0 1 7.498 0ZM8.67 11.6a7.497 7.497 0 0 0-1.537-.309 8.727 8.727 0 0 0-.883-.041c-5 0-6.25 3.75-6.25 5 0 .833.417 1.25 1.25 1.25h5.27a2.8 2.8 0 0 1-.27-1.25c0-1.262.471-2.553 1.362-3.63A6.612 6.612 0 0 1 8.67 11.6Zm-2.52.9A6.875 6.875 0 0 0 5 16.25H1.25c0-.325.205-1.287.95-2.155.681-.795 1.865-1.57 3.95-1.594V12.5ZM1.875 6.875a3.75 3.75 0 1 1 7.5 0 3.75 3.75 0 0 1-7.5 0Zm3.75-2.5a2.5 2.5 0 1 0 0 5 2.5 2.5 0 0 0 0-5Z" fill="#101828"></path>
  </symbol>
  <symbol fill="none" xmlns="http://www.w3.org/2000/svg" viewBox="0 0 20 20" id="location">
    <g clip-path="url(#a)">
      <path fill-rule="evenodd" clip-rule="evenodd" d="M19.771.141A.624.624 0 0 1 20 .625v17.5a.625.625 0 0 1-.503.612l-6.25 1.25a.627.627 0 0 1-.245 0l-6.127-1.225-6.127 1.225A.625.625 0 0 1 0 19.375v-17.5a.625.625 0 0 1 .502-.613l6.25-1.25a.625.625 0 0 1 .245 0l6.128 1.225L19.253.012a.625.625 0 0 1 .518.129ZM12.5 2.387l-5-1v16.225l5 1V2.387Zm1.25 16.225 5-1V1.387l-5 1v16.225Zm-7.5-1V1.387l-5 1v16.225l5-1Z" fill="#101828"></path>
    </g>
    <defs>
      <clipPath id="a">
        <path fill="#fff" d="M0 0h20v20H0z"></path>
      </clipPath>
    </defs>
  </symbol>
  <symbol fill="none" xmlns="http://www.w3.org/2000/svg" viewBox="0 0 16 16" id="star-highlighted">
    <g clip-path="url(#a)">
      <path d="M7.558.838a.5.5 0 0 1 .884 0l1.889 3.579a.5.5 0 0 0 .356.26l3.988.69a.5.5 0 0 1 .273.84l-2.82 2.902a.5.5 0 0 0-.137.42l.576 4.005a.5.5 0 0 1-.715.52L8.22 12.268a.5.5 0 0 0-.442 0l-3.63 1.786a.5.5 0 0 1-.716-.52l.576-4.005a.5.5 0 0 0-.137-.42l-2.82-2.902a.5.5 0 0 1 .273-.84l3.988-.69a.5.5 0 0 0 .357-.26L7.558.838Z" fill="#FFC531"></path>
    </g>
    <defs>
      <clipPath id="a">
        <path fill="#fff" d="M0 0h16v16H0z"></path>
      </clipPath>
    </defs>
  </symbol>
  <symbol fill="none" xmlns="http://www.w3.org/2000/svg" viewBox="0 0 24 24" id="heart-highlighted">
    <path d="m12 9.854-1.341-2.683c-.333-.665-.91-1.62-1.728-2.393C8.127 4.018 7.164 3.5 6 3.5c-2.514 0-4.5 1.989-4.5 4.38 0 1.817.831 3.099 2.802 5.055a86.725 86.725 0 0 0 1.719 1.64c1.662 1.56 3.729 3.5 5.979 6.096 2.25-2.595 4.317-4.537 5.979-6.096a86.92 86.92 0 0 0 1.719-1.64C21.669 10.979 22.5 9.696 22.5 7.88c0-2.391-1.986-4.38-4.5-4.38-1.166 0-2.127.518-2.931 1.278-.818.773-1.395 1.728-1.728 2.393L12 9.854Zm.588 12.438a.77.77 0 0 1-1.176 0c-2.402-2.853-4.575-4.893-6.365-6.572C1.95 12.813 0 10.983 0 7.88 0 4.633 2.685 2 6 2c2.4 0 4.079 1.575 5.106 3.012.39.548.687 1.074.894 1.488.26-.518.559-1.015.894-1.488C13.921 3.574 15.6 2 18 2c3.315 0 6 2.633 6 5.88 0 3.103-1.95 4.932-5.047 7.84-1.79 1.68-3.963 3.722-6.365 6.572Z" fill="#E44848"></path>
  </symbol>
</svg>